<?xml version="1.0" encoding="UTF-8" standalone="no"?>
<!-- Created with Inkscape (http://www.inkscape.org/) -->

<svg
   width="192"
   height="192"
   viewBox="0 0 50.800003 50.799997"
   version="1.1"
   id="svg5"
   inkscape:version="1.1.2 (0a00cf5339, 2022-02-04)"
   sodipodi:docname="GG.svg"
   xmlns:inkscape="http://www.inkscape.org/namespaces/inkscape"
   xmlns:sodipodi="http://sodipodi.sourceforge.net/DTD/sodipodi-0.dtd"
   xmlns:xlink="http://www.w3.org/1999/xlink"
   xmlns="http://www.w3.org/2000/svg"
   xmlns:svg="http://www.w3.org/2000/svg">
  <sodipodi:namedview
     id="namedview7"
     pagecolor="#ffffff"
     bordercolor="#666666"
     borderopacity="1.0"
     inkscape:pageshadow="2"
     inkscape:pageopacity="0.0"
     inkscape:pagecheckerboard="0"
     inkscape:document-units="mm"
     showgrid="false"
     inkscape:zoom="2.9576319"
     inkscape:cx="99.065743"
     inkscape:cy="91.965468"
     inkscape:window-width="1920"
     inkscape:window-height="1008"
     inkscape:window-x="0"
     inkscape:window-y="143"
     inkscape:window-maximized="1"
     inkscape:current-layer="g7188"
     units="px"
     width="512px" />
  <defs
     id="defs2">
    <linearGradient
       inkscape:collect="always"
       id="linearGradient5601">
      <stop
         style="stop-color:#2e73d3;stop-opacity:1;"
         offset="0"
         id="stop5597" />
      <stop
         style="stop-color:#df73d3;stop-opacity:0.61960787"
         offset="1"
         id="stop5599" />
    </linearGradient>
    <linearGradient
       inkscape:collect="always"
       xlink:href="#linearGradient5601"
       id="linearGradient5603"
       x1="26.179794"
       y1="135.92722"
       x2="168.4183"
       y2="135.92722"
       gradientUnits="userSpaceOnUse"
       gradientTransform="matrix(0.32565136,0,0,0.25254457,65.021654,90.705599)" />
    <linearGradient
       inkscape:collect="always"
       xlink:href="#linearGradient5601"
       id="linearGradient7270"
       gradientUnits="userSpaceOnUse"
       x1="26.179794"
       y1="135.92722"
       x2="168.4183"
       y2="135.92722"
       gradientTransform="matrix(0.31332351,0,0,0.24850114,66.688812,91.206355)" />
  </defs>
  <g
     inkscape:label="Layer 1"
     inkscape:groupmode="layer"
     id="layer1"
     transform="translate(-70.250266,-101.37582)" />
  <g
     inkscape:groupmode="layer"
     id="layer2"
     inkscape:label="Text1"
     style="opacity:1"
     transform="translate(-70.250266,-101.37582)">
    <path
       style="fill:url(#linearGradient5603);fill-opacity:1;stroke:#4c4f91;stroke-width:1.065;stroke-linecap:round;stroke-linejoin:miter;stroke-miterlimit:4;stroke-dasharray:none;stroke-opacity:1"
       d="m 112.61535,113.66082 c 1.31268,-0.47443 -2.2126,-11.53943 -1.53085,-10.49763 -2.6582,10.28762 -16.85093,1.58093 -25.288812,2.49193 5.249604,0.0747 -3.471339,5.65972 -9.194742,4.67697 8.933389,7.21658 2.530251,12.11034 -1.917725,28.4289 l 4.771613,7.65064 c 6.103537,-5.46516 20.869936,0.48367 32.224656,1.27637 -0.29858,-3.26009 5.14804,-1.40732 7.38109,-2.64779 1.05477,-0.58594 -0.14589,-6.65182 0.71222,-7.50502 -0.76889,-13.32569 -12.4563,-19.5023 -19.945511,-15.85338 -2.279067,1.17396 0.306151,5.18757 -8.25271,9.11951 -2.32182,1.82694 -0.248989,3.78761 0.919446,5.17682 0.708283,-0.54041 9.771715,-1.80689 12.830065,-0.41253 -15.435319,-9.4573 14.13102,-9.15578 8.3624,0.88816 -8.81552,0.2686 -7.0407,3.12278 -6.48825,5.67853 -9.341709,-1.90105 -14.812628,-8.4575 -22.53491,-4.05221 3.689156,-6.66006 7.929325,-8.56526 4.124986,-23.49525 10.285877,-7.11701 17.041734,-2.17039 17.095454,-2.17075 -1.13801,6.54303 -2.14597,5.79805 -1.37711,6.77731 -0.17558,-4.25737 7.53878,-4.36556 8.10869,-5.53058 z"
       id="path106"
       sodipodi:nodetypes="cccccccscccccccccccc" />
  </g>
  <g
     inkscape:groupmode="layer"
     id="g7188"
     inkscape:label="Text1 copy"
     style="opacity:0.84"
     transform="translate(-70.250266,-101.37582)">
    <path
       style="fill:url(#linearGradient7270);fill-opacity:1;stroke:#1e5758;stroke-width:1.865;stroke-linecap:butt;stroke-linejoin:miter;stroke-miterlimit:4;stroke-dasharray:none;stroke-opacity:1"
       d="m 112.4808,113.79405 c 1.26307,-0.46704 -1.35252,-13.69446 -2.12473,-10.77701 -3.56794,10.70476 -17.821263,0.42627 -24.585029,2.47985 8.590684,1.62274 -6.007151,6.53674 -8.938848,4.65428 11.186968,7.85987 0.335673,15.97651 -0.847562,28.34117 l 4.163151,7.92673 c 5.872485,-5.37765 20.606828,0.48892 31.531708,1.26893 -0.28728,-3.2079 4.85404,-1.79636 7.00256,-3.01698 1.01484,-0.57655 -0.14037,-6.54531 0.68526,-7.38485 -2.24633,-13.3066 -12.20848,-18.63934 -19.955169,-15.84031 -1.784442,6.29473 -7.119126,9.6311 -7.40523,9.4539 -2.233929,1.7977 -0.0099,3.48732 1.114278,4.85429 0.681476,-0.53175 9.401801,-1.77797 12.344371,-0.40593 -8.515405,-3.32782 -5.733857,-6.89879 0.86537,-7.28595 6.88323,0.20907 8.622,5.36542 7.3124,8.4571 -11.31972,0.24423 -6.28109,3.70896 -6.34872,5.64542 -8.843439,-0.82503 -14.548684,-7.84502 -22.050332,-4.02858 3.549502,-6.55343 7.971811,-8.74189 4.311486,-23.43284 3.104501,-3.86537 12.246366,-6.14344 16.500676,-2.13649 0.001,-0.013 -0.99616,2.2894 -0.0524,3.4e-4 0.2103,0 -2.27374,4.17858 -1.48403,6.21937 -0.16893,-4.18921 7.41244,-3.84623 7.96077,-4.9926 z"
       id="path7186"
       sodipodi:nodetypes="cccccccsccccccccccccccc" />
    <path
       style="fill:url(#linearGradient7270);fill-opacity:1;stroke:#1e5758;stroke-width:1.865;stroke-linecap:butt;stroke-linejoin:miter;stroke-miterlimit:4;stroke-dasharray:none;stroke-opacity:1"
       d="m 112.4808,113.79405 c 1.26307,-0.46704 -1.35252,-13.69446 -2.12473,-10.77701 -3.56794,10.70476 -17.821263,0.42627 -24.585029,2.47985 8.590684,1.62274 -8.7131,6.3691 -11.644797,4.48664 11.186968,7.85987 3.041622,16.14415 1.858387,28.50881 l 4.163151,7.92673 c 5.872485,-5.37765 20.606828,0.48892 31.531708,1.26893 -0.28728,-3.2079 4.85404,-1.79636 7.00256,-3.01698 1.01484,-0.57655 -0.14037,-6.54531 0.68526,-7.38485 -2.24633,-13.3066 -12.20848,-18.63934 -19.955169,-15.84031 -1.784442,6.29473 -7.119126,9.6311 -7.40523,9.4539 -2.233929,1.7977 -0.0099,3.48732 1.114278,4.85429 0.681476,-0.53175 9.401801,-1.77797 12.344371,-0.40593 -8.515405,-3.32782 -5.733857,-6.89879 0.86537,-7.28595 6.88323,0.20907 8.622,5.36542 7.3124,8.4571 -11.31972,0.24423 -6.28109,3.70896 -6.34872,5.64542 -8.843439,-0.82503 -14.548684,-7.84502 -22.050332,-4.02858 3.549502,-6.55343 7.971811,-8.74189 4.311486,-23.43284 3.104501,-3.86537 12.246366,-6.14344 16.500676,-2.13649 0.001,-0.013 -0.99616,2.2894 -0.0524,3.4e-4 0.2103,0 -2.27374,4.17858 -1.48403,6.21937 -0.16893,-4.18921 7.41244,-3.84623 7.96077,-4.9926 z"
       id="path31769"
       sodipodi:nodetypes="cccccccsccccccccccccccc"
       inkscape:export-filename="/home/narko/code/galengoforth.com/public/gg_small.png"
       inkscape:export-xdpi="96"
       inkscape:export-ydpi="96" />
  </g>
</svg>
